<?xml version="1.0" encoding="UTF-8"?>
<svg
    xmlns="http://www.w3.org/2000/svg"
    xmlns:svg="http://www.w3.org/2000/svg"
    width="100" height="100"
    version="1.1" xml:space="preserve" style="clip-rule:evenodd;fill-rule:evenodd;stroke-linejoin:round;stroke-miterlimit:1.41420996">
    <g transform="matrix(0.958333,0,0,0.927273,-1.91667,-19.4727)">
        <path d="m 81.269208,99.136136 -54.372628,0 c -12.627886,0 -22.150428,-7.547511 -22.150428,-17.555573 0,-9.490687 4.8903402,-14.718253 13.770283,-14.718253 0.31416,0 0.630516,0.0022 0.950168,0.0066 0.708506,-5.650473 4.338913,-11.004363 12.81023,-11.004363 1.027059,0 1.900334,0.197723 2.601151,0.429497 2.495699,-5.189121 7.752925,-10.535321 18.81331,-10.535321 7.652964,0 13.773578,2.845009 17.827991,8.253822 1.81795,-0.94138 3.790783,-1.432391 5.804258,-1.432391 6.150273,0 11.469012,4.45535 13.367149,11.008757 3.462343,0.639304 6.662155,2.522063 8.949142,5.307755 2.232066,2.719784 4.698106,7.576072 3.765516,15.272975 -1.11713,9.231451 -9.598329,14.966505 -22.136142,14.966505 z" style="fill:#777777;stroke:#000000;stroke-width:5px" />
    </g>
</svg>
