<?xml version="1.0" encoding="UTF-8" standalone="no"?>
<!DOCTYPE svg PUBLIC "-//W3C//DTD SVG 1.1//EN" "http://www.w3.org/Graphics/SVG/1.1/DTD/svg11.dtd">
<svg width="100%" height="100%" viewBox="0 0 100 100" version="1.1" xmlns="http://www.w3.org/2000/svg" xmlns:xlink="http://www.w3.org/1999/xlink" xml:space="preserve" style="fill-rule:evenodd;clip-rule:evenodd;stroke-linejoin:round;stroke-miterlimit:1.41421;">
    <rect x="4" y="40.8" width="91" height="14.2" style="fill:rgb(235,235,235);"/>
    <g transform="matrix(1,0,0,0.8,0,0)">
        <g transform="matrix(1,0,0,1,0.0309653,11)">
            <path d="M100,59C100,60.104 99.104,61 98,61L2,61C0.896,61 0,60.104 0,59L0,38C0,36.896 0.896,36 2,36L98,36C99.104,36 100,36.896 100,38L100,59ZM4,57L95,57L95,40L4,40L4,57Z" style="fill-rule:nonzero;"/>
        </g>
        <g transform="matrix(1,0,0,1,0.0309653,11)">
            <path d="M97.149,40L1.969,40C0.955,40 0.102,39.12 -0.017,38.113C-0.136,37.106 0.517,36.109 1.503,35.872L28.697,29.204C28.85,29.167 29.006,29 29.164,29L69.955,29C70.112,29 70.268,29.137 70.421,29.174L97.616,35.752C98.602,35.988 99.255,37.076 99.136,38.083C99.017,39.09 98.163,40 97.149,40ZM18.892,36L80.227,36L69.719,33L29.4,33L18.892,36Z" style="fill-rule:nonzero;"/>
        </g>
    </g>
    <g transform="matrix(1,0,0,0.8,0.0309653,8.8)">
        <path d="M17,55L9,55C7.896,55 7,54.104 7,53L7,45C7,43.896 7.896,43 9,43L17,43C18.104,43 19,43.896 19,45L19,53C19,54.104 18.104,55 17,55ZM11,51L15,51L15,47L11,47L11,51Z" style="fill:rgb(0,255,15);fill-rule:nonzero;"/>
    </g>
    <g transform="matrix(1,0,0,0.8,0.0309653,8.8)">
        <path d="M33,53C33,54.104 32.104,55 31,55L23,55C21.896,55 21,54.104 21,53L21,45C21,43.896 21.896,43 23,43L31,43C32.104,43 33,43.896 33,45L33,53ZM25,51L29,51L29,47L25,47L25,51Z" style="fill:rgb(0,255,15);fill-rule:nonzero;"/>
    </g>
    <g transform="matrix(1,0,0,0.8,0.0309653,8.8)">
        <path d="M46,55L38,55C36.896,55 36,54.104 36,53L36,45C36,43.896 36.896,43 38,43L46,43C47.104,43 48,43.896 48,45L48,53C48,54.104 47.104,55 46,55ZM40,51L44,51L44,47L40,47L40,51Z" style="fill:rgb(0,255,15);fill-rule:nonzero;"/>
    </g>
    <g transform="matrix(1,0,0,0.8,0.0309653,8.8)">
        <path d="M90,55L82,55C80.896,55 80,54.104 80,53L80,45C80,43.896 80.896,43 82,43L90,43C91.104,43 92,43.896 92,45L92,53C92,54.104 91.104,55 90,55ZM84,51L88,51L88,47L84,47L84,51Z" style="fill:rgb(0,255,15);fill-rule:nonzero;"/>
    </g>
    <g transform="matrix(1,0,0,0.8,0.0309653,8.8)">
        <path d="M78,53C78,54.104 77.104,55 76,55L68,55C66.896,55 66,54.104 66,53L66,45C66,43.896 66.896,43 68,43L76,43C77.104,43 78,43.896 78,45L78,53ZM70,51L74,51L74,47L70,47L70,51Z" style="fill:rgb(0,255,15);fill-rule:nonzero;"/>
    </g>
    <g transform="matrix(1,0,0,0.8,0.0309653,8.8)">
        <path d="M63,53C63,54.104 62.104,55 61,55L52,55C50.896,55 50,54.104 50,53L50,45C50,43.896 50.896,43 52,43L61,43C62.104,43 63,43.896 63,45L63,53ZM54,51L59,51L59,47L54,47L54,51Z" style="fill:rgb(0,255,15);fill-rule:nonzero;"/>
    </g>
    <path d="M80,37.6L19,37.6L30.101,35L68.899,35L80,37.6Z" style="fill:rgb(235,235,235);"/>
</svg>
